<?xml version="1.0" encoding="UTF-8"?>
<svg id="Layer_1" data-name="Layer 1" xmlns="http://www.w3.org/2000/svg" viewBox="0 0 24 24">
	<defs>
		<style>
			.cls-1 {
				fill: #fff;
			}

			.cls-1, .cls-2 {
				stroke-width: 0px;
			}

			.cls-2 {
				fill: #923442;
			}
		</style>
	</defs>
	<rect class="cls-2" x="0" width="24" height="24"/>
	<path class="cls-1" d="M15.87,11.26h0c.2,0,.37.16.37.37v8.28c0,.2-.16.37-.37.37h-.63c-.2,0-.37-.16-.37-.37v-7.64c0-.55.45-1,1-1Z" transform="translate(-6.59 15.62) rotate(-45)"/>
	<path class="cls-1" d="M15.24,5.85h.63c.2,0,.37.16.37.37v8.28c0,.2-.16.37-.37.37h0c-.55,0-1-.45-1-1v-7.64c0-.2.16-.37.37-.37Z" transform="translate(11.88 -7.97) rotate(45)"/>
	<path class="cls-1" d="M7.34,8.69c0-.37.13-.69.4-.96s.59-.4.96-.4.69.13.96.4.4.59.4.96-.13.69-.4.96-.59.4-.96.4-.69-.13-.96-.4-.4-.59-.4-.96ZM4.62,8.69c0-1.13.4-2.1,1.19-2.89s1.76-1.19,2.89-1.19,2.1.4,2.89,1.19,1.19,1.76,1.19,2.89c0,.76-.19,1.45-.56,2.07s-.87,1.11-1.48,1.47v5.7c0,.09-.02.18-.05.26s-.09.16-.15.23l-1.36,1.36c-.07.07-.14.12-.22.14-.08.03-.16.04-.26.04s-.18-.01-.26-.04-.15-.08-.22-.14l-2.16-2.16c-.06-.06-.1-.12-.14-.2s-.06-.16-.07-.24,0-.16.02-.24.06-.15.12-.22l.66-.88-.73-.97c-.05-.06-.08-.12-.1-.19s-.03-.14-.03-.2.01-.14.03-.21.06-.14.1-.2l.73-1.04v-.8c-.61-.36-1.11-.85-1.48-1.47s-.56-1.31-.56-2.07ZM5.98,8.69c0,.63.19,1.19.58,1.68s.87.8,1.46.96v2.13l-.7.99h0,0l1.04,1.39-.94,1.21,1.28,1.28h0s0,0,0,0l.68-.68h0,0v-6.31c.59-.16,1.08-.48,1.46-.96s.58-1.04.58-1.68c0-.75-.27-1.39-.8-1.92s-1.17-.8-1.92-.8-1.39.27-1.92.8-.8,1.17-.8,1.92Z"/>
</svg>